<?xml version="1.0" encoding="UTF-8" standalone="no"?>
<svg
   width="679px"
   height="158px"
   viewBox="0 0 679 158"
   version="1.1"
   id="svg7"
   sodipodi:docname="Patternfly-Logo.svg"
   inkscape:version="1.4.2 (f4327f4, 2025-05-13)"
   xmlns:inkscape="http://www.inkscape.org/namespaces/inkscape"
   xmlns:sodipodi="http://sodipodi.sourceforge.net/DTD/sodipodi-0.dtd"
   xmlns="http://www.w3.org/2000/svg"
   xmlns:svg="http://www.w3.org/2000/svg">
  <sodipodi:namedview
     id="namedview7"
     pagecolor="#ffffff"
     bordercolor="#000000"
     borderopacity="0.25"
     inkscape:showpageshadow="2"
     inkscape:pageopacity="0.0"
     inkscape:pagecheckerboard="0"
     inkscape:deskcolor="#d1d1d1"
     inkscape:zoom="2.7533137"
     inkscape:cx="354.11875"
     inkscape:cy="29.782295"
     inkscape:window-width="2745"
     inkscape:window-height="1754"
     inkscape:window-x="5750"
     inkscape:window-y="123"
     inkscape:window-maximized="0"
     inkscape:current-layer="svg7" />
  <title
     id="title1">Patternfly Logo</title>
  <defs
     id="defs2">
    <linearGradient
       x1="100%"
       y1="1.31838984e-13%"
       x2="40.4021492%"
       y2="59.4473677%"
       id="linearGradient-1">
      <stop
         stop-color="#FFFFFF"
         offset="0%"
         id="stop1" />
      <stop
         stop-color="#FFFFFF"
         stop-opacity="0.498497596"
         offset="100%"
         id="stop2" />
    </linearGradient>
  </defs>
  <g
     id="PF-HorizontalLogo-Reverse"
     stroke="none"
     stroke-width="1"
     fill="none"
     fill-rule="evenodd">
    <g
       id="Group"
       transform="translate(-0.000000, 0.000000)">
    </g>
    <g
       id="PatternFly-Copy-11"
       transform="translate(206.000000, 45.750000)"
       fill="#FFFFFF"
       fill-rule="nonzero">
    </g>
  </g>
  <text
     xml:space="preserve"
     style="font-weight:600;font-size:57.5205px;line-height:0.1;font-family:Syne;-inkscape-font-specification:'Syne Semi-Bold';text-align:start;writing-mode:lr-tb;direction:ltr;text-anchor:start;fill:#28220b;stroke:#1a1a1a"
     x="74.092537"
     y="63.922974"
     id="text7"><tspan
       sodipodi:role="line"
       id="tspan7"
       x="74.092537"
       y="63.922974" /></text>
  <text
     xml:space="preserve"
     style="font-weight:600;font-size:57.5205px;line-height:0.1;font-family:Syne;-inkscape-font-specification:'Syne Semi-Bold';text-align:start;writing-mode:lr-tb;direction:ltr;text-anchor:start;fill:#28220b;stroke:#1a1a1a"
     x="202.66489"
     y="81.356514"
     id="text8"><tspan
       sodipodi:role="line"
       id="tspan8"
       x="202.66489"
       y="81.356514" /></text>
  <path
     d="m 51.684274,149.30948 q -13.418666,0 -24.666666,-6.512 Q 15.966942,136.28548 9.2576088,124.84014 2.745609,113.19748 2.745609,98.200144 q 0,-15.392 6.7093332,-26.837333 6.7093328,-11.642666 18.1546658,-18.154666 11.445333,-6.512 25.653333,-6.512 15.786666,0 25.061333,6.906667 9.274666,6.906666 13.221333,18.549332 3.946666,11.642667 3.946666,26.048 0,8.090666 -2.368,17.167996 -2.368,8.88 -7.498666,16.576 -4.933333,7.696 -13.418666,12.62934 -8.288,4.736 -20.522667,4.736 z m 6.709334,-18.15467 q 11.050666,0 18.746666,-4.144 7.893333,-4.34133 11.839999,-11.84 4.144,-7.49867 4.144,-16.970666 0,-10.458667 -4.144,-17.76 -4.143999,-7.498666 -11.839999,-11.445333 -7.696,-4.144 -18.746666,-4.144 -15.786667,0 -24.469333,9.274667 -8.682667,9.274666 -8.682667,24.074666 0,9.669336 4.144,17.167996 4.341334,7.49867 11.84,11.64267 7.498666,4.144 17.168,4.144 z M 93.124273,48.866812 H 115.22561 V 147.13881 H 94.70294 q 0,0 -0.394667,-3.74933 -0.394666,-3.74934 -0.789333,-9.07734 -0.394667,-5.52533 -0.394667,-10.45866 z m 39.269407,0 h 69.46133 v 17.957333 h -69.46133 z m 23.68,-26.442666 h 22.10133 V 147.13881 h -22.10133 z m 56.04254,26.442666 h 69.46133 v 17.957333 h -69.46133 z m 23.67999,-26.442666 h 22.10134 V 147.13881 H 235.79621 Z M 324.39875,7.2294795 V 28.344146 H 298.15342 V 7.2294795 Z m -24.272,41.6373325 h 22.10133 V 147.13881 H 300.12675 Z M 350.4469,9.4001461 h 21.904 V 147.13881 h -21.904 z m 98.46933,39.4666659 -55.056,50.517332 0.592,-13.813333 58.608,61.567999 H 425.0389 l -52.096,-55.055999 45.584,-43.215999 z m 56.83216,100.442668 q -13.41866,0 -24.66666,-6.512 -11.05067,-6.512 -17.76,-17.95734 -6.512,-11.64266 -6.512,-26.639996 0,-15.392 6.70933,-26.837333 6.70933,-11.642666 18.15467,-18.154666 11.44533,-6.512 25.65333,-6.512 15.78666,0 25.06133,6.906667 9.27467,6.906666 13.22133,18.549332 3.94667,11.642667 3.94667,26.048 0,8.090666 -2.368,17.167996 -2.368,8.88 -7.49867,16.576 -4.93333,7.696 -13.41866,12.62934 -8.288,4.736 -20.52267,4.736 z m 6.70934,-18.15467 q 11.05066,0 18.74666,-4.144 7.89333,-4.34133 11.84,-11.84 4.144,-7.49867 4.144,-16.970666 0,-10.458667 -4.144,-17.76 -4.144,-7.498666 -11.84,-11.445333 -7.696,-4.144 -18.74666,-4.144 -15.78667,0 -24.46934,9.274667 -8.68266,9.274666 -8.68266,24.074666 0,9.669336 4.144,17.167996 4.34133,7.49867 11.84,11.64267 7.49866,4.144 17.168,4.144 z m 34.73066,-82.287998 h 22.10133 v 98.271998 h -20.52266 q 0,0 -0.39467,-3.74933 -0.39467,-3.74934 -0.78933,-9.07734 -0.39467,-5.52533 -0.39467,-10.45866 z m 41.83471,65.909328 h 20.32533 q 1.57867,7.49867 8.09067,12.23467 6.512,4.53867 17.56267,4.53867 7.104,0 11.05066,-1.57867 4.144,-1.57867 5.72267,-4.34133 1.776,-2.76267 1.776,-6.31467 0,-4.34133 -2.56533,-6.70933 -2.368,-2.368 -7.104,-3.94667 -4.736,-1.57867 -11.84,-2.76267 -7.30134,-1.776 -14.40534,-3.94666 -7.104,-2.17067 -12.82666,-5.328003 -5.72267,-3.354666 -9.07734,-8.288 -3.15733,-5.130666 -3.15733,-12.431999 0,-6.709333 2.96,-12.037333 3.15733,-5.525334 8.68267,-9.274667 5.52533,-3.749333 13.024,-5.722666 7.49866,-2.170667 16.37866,-2.170667 12.82667,0 21.312,4.144 8.68267,4.144 13.024,11.642666 4.53867,7.498667 4.53867,17.168 h -19.33867 q -1.57866,-7.893333 -6.11733,-11.445333 -4.53867,-3.552 -13.616,-3.552 -9.07733,0 -13.81333,3.157333 -4.736,3.157334 -4.736,8.682667 0,4.144 2.96,6.709333 3.15733,2.368 8.88,4.144 5.72266,1.776 13.41866,3.552 7.104,1.973333 13.41867,4.144 6.31467,1.973333 11.248,5.130669 5.13067,2.96 8.09067,7.89333 2.96,4.93333 2.96,12.23467 0,9.07733 -4.93334,15.58933 -4.736,6.512 -13.81333,10.064 -9.07733,3.35467 -21.904,3.35467 -11.248,0 -19.536,-2.56534 -8.09067,-2.56533 -13.616,-6.70933 -5.328,-4.144 -8.288,-8.88 -2.96,-4.736 -4.144,-9.07733 -0.98667,-4.34134 -0.592,-7.30134 z"
     id="text9"
     style="font-weight:600;font-size:197.333px;line-height:0.1;font-family:Syne;-inkscape-font-specification:'Syne Semi-Bold';fill:#28220b;stroke:#1a1a1a"
     aria-label="attikas" />
</svg>
